<?xml version="1.0"?><svg width="578" height="600" xmlns="http://www.w3.org/2000/svg">
 <!-- Created with SVG-edit - http://svg-edit.googlecode.com/ -->
 <title>locator version 2</title>
 <g>
  <title>Layer 1</title>
  <ellipse fill="#000000" stroke="#000000" stroke-width="5" stroke-dasharray="null" stroke-linejoin="null" stroke-linecap="null" cx="300.499993" cy="483.25" id="svg_6" rx="217.000002" ry="59.75"/>
  <ellipse fill="#ffffff" stroke="#ffffff" stroke-width="5" stroke-dasharray="null" stroke-linejoin="null" stroke-linecap="null" cx="299.999996" cy="461.249999" id="svg_10" rx="156.500006" ry="38.249999"/>
  <path fill="#000000" stroke="#000000" stroke-width="5" stroke-dasharray="null" stroke-linejoin="null" stroke-linecap="null" d="m154.830185,208.5l0.932068,8.5l1.398102,7l3.262238,10.5l8.854675,22.5l12.116898,26.5l11.650879,23l10.718781,19.5l10.718811,18l22.835709,40.5l62.448624,106l63.380768,-104.5c0,0 13.515015,-24.5 13.981018,-24.5c0.466034,0 11.184814,-19.5 11.184814,-19.5c0,0 8.388641,-15 8.388641,-15.5c0,-0.5 9.320709,-17 9.320709,-17c0,0 10.718842,-21.5 10.718842,-21.5c0,0 8.854645,-19.5 8.854645,-19.5c0,0 9.786713,-20.5 9.786713,-20.5c0,0 5.592438,-17.5 5.592438,-17.5c0,0 4.660309,-20 4.660309,-20c0,0 1.864136,-24 1.864136,-24c0,0 0,-15.5 0,-15.5c0,0 -2.330139,-16.5 -2.330139,-16.5c0,0 -2.3302,-12.5 -2.3302,-12.5c0,0 -4.194305,-12.5 -4.194305,-12.5c0,0 -3.262238,-14 -3.262238,-14c0,0 -6.058441,-15.5 -6.058441,-15.5c0,0 -7.456573,-11 -7.456573,-11c0,0 -6.990509,-10.5 -6.990509,-10.5c0,0 -7.922607,-8.5 -7.922607,-9c0,-0.5 -10.718781,-11 -10.718781,-11c0,0 -11.184845,-9.5 -11.184845,-9.5c0,0 -12.582916,-8.5 -12.582916,-8.5c0,0 -14.447083,-6.5 -14.447083,-6.5c0,0 -15.845215,-7 -15.845215,-7c0,0 -19.107422,-3.5 -19.107422,-3.5c0,0 -20.505524,-2.5 -20.505524,-2.5c0,0 -12.116882,0.5 -12.116882,0.5c0,0 -12.582947,2 -13.048981,2c-0.466034,0 -15.845215,4 -15.845215,4c0,0 -14.913086,5.5 -14.913086,5.5c0,0 -13.515015,5.5 -13.515015,5.5c0,0 -12.582932,8.5 -12.582932,8.5c0,0 -9.786743,6.5 -9.786743,6.5c0,0 -10.718796,9.5 -10.718796,9.5c0,0 -10.718796,10.5 -10.718796,10.5c0,0 -9.320694,13.5 -9.320694,13.5c0,0 -6.058456,11.5 -8.388611,18c-2.330185,6.5 -5.592438,12.5 -5.592438,12.5c0,0 -4.194305,11.5 -4.194305,11.5c0,0 -4.660355,12 -4.660355,12c0,0 -2.796204,12.5 -2.33017,13c0.466034,0.5 -1.398102,9 -1.398102,9c0,0 -0.466034,11 -0.466034,11c0,0 -0.466034,9 -0.466034,9c0,0 0,8 0,8c0,0 0,9.5 0,9.5c0,0 2.33017,8 2.33017,8z" id="svg_5"/>
  <path fill="#ffffff" stroke="#000000" stroke-width="5" stroke-dasharray="null" stroke-linejoin="null" stroke-linecap="null" d="m223,134.631927c0,-44.366432 34.34671,-80.30323 76.75,-80.30323c42.40329,0 76.75,35.936798 76.75,80.30323c0,44.366425 -34.34671,80.303253 -76.75,80.303253c-42.40329,0 -76.75,-35.936829 -76.75,-80.303253z" id="svg_2"/>
 </g>
</svg>